# File created by Blade
# Date/Time:  Tue Jan 27 17:27:44 2015
#---------------------------------------------------------
:version 1.10
:name HOM
:units
  mass 1.0
  length 1.000000
  angle deg
:documentation
     Acclaim Skeleton File
:root
   axis xyz
   order TX TY TZ RX RY RZ
   position 0.000000 0.000000 0.000000
   orientation 0 0 0
:bonedata
   begin
      id 1
      name Spine_dum
      direction 0.000000 1.000000 0.000000
      length 7.539951
      axis 0.0 0.0 0.0 xyz
   end
   begin
      id 2
      name LeftUpLeg_dum
      direction 1.000000 0.000000 0.000000
      length 3.345476
      axis 0.0 0.0 0.0 xyz
   end
   begin
      id 3
      name RightUpLeg_dum
      direction -1.000000 0.000000 0.000000
      length 3.345476
      axis 0.0 0.0 0.0 xyz
   end
   begin
      id 4
      name Spine
      direction 0.000000 1.000000 0.000000
      length 0.000000
      axis 0.0 0.0 0.0 xyz
      dof rx ry rz
   end
   begin
      id 5
      name Spine_dum1
      direction 0.000000 1.000000 0.000000
      length 15.093809
      axis 0.0 0.0 0.0 xyz
   end
   begin
      id 6
      name Spine_dum2
      direction 0.000000 1.000000 0.000000
      length 9.738928
      axis 0.0 0.0 0.0 xyz
   end
   begin
      id 7
      name Spine_dum3
      direction 0.000000 1.000000 0.000000
      length 9.738928
      axis 0.0 0.0 0.0 xyz
   end
   begin
      id 8
      name Head
      direction 0.000000 1.000000 0.000000
      length 4.527550
      axis 0.0 0.0 0.0 xyz
      dof rx ry rz
   end
   begin
      id 9
      name LeftShoulder
      direction 1.000000 0.000000 0.000000
      length 7.084015
      axis 0.0 0.0 -90.0 xyz
      dof rx ry rz
   end
   begin
      id 10
      name LeftArm
      direction 1.000000 0.000000 0.000000
      length 10.259319
      axis 0.0 0.0 -90.0 xyz
      dof rx ry rz
   end
   begin
      id 11
      name LeftForeArm
      direction 1.000000 0.000000 0.000000
      length 9.896984
      axis 0.0 0.0 -90.0 xyz
      dof ry rz rx
   end
   begin
      id 12
      name LeftHand
      direction 0.000000 0.000000 0.000000
      length 0.000000
      axis 0.0 0.0 -90.0 xyz
      dof rx ry rz
   end
   begin
      id 13
      name LeftHand_dum1
      direction 0.000000 0.000000 0.000000
      length 0.000000
      axis 0.0 0.0 -90.0 xyz
   end
   begin
      id 14
      name LeftHand_dum2
      direction 1.000000 0.000000 0.000000
      length 3.937000
      axis 0.0 0.0 -90.0 xyz
   end
   begin
      id 15
      name LeftHandThumb1
      direction 0.000000 0.000000 1.000000
      length 3.937000
      axis 0.0 0.0 -90.0 xyz
      dof rx rz ry
   end
   begin
      id 16
      name RightShoulder
      direction -1.000000 0.000000 0.000000
      length 7.084015
      axis 0.0 0.0 90.0 xyz
      dof rx ry rz
   end
   begin
      id 17
      name RightArm
      direction -1.000000 0.000000 0.000000
      length 10.259319
      axis 0.0 0.0 90.0 xyz
      dof rx ry rz
   end
   begin
      id 18
      name RightForeArm
      direction -1.000000 0.000000 0.000000
      length 9.896984
      axis 0.0 0.0 90.0 xyz
      dof ry rz rx
   end
   begin
      id 19
      name RightHand
      direction 0.000000 0.000000 0.000000
      length 0.000000
      axis 0.0 0.0 90.0 xyz
      dof rx ry rz
   end
   begin
      id 20
      name RightHand_dum1
      direction 0.000000 0.000000 0.000000
      length 0.000000
      axis 0.0 0.0 90.0 xyz
   end
   begin
      id 21
      name RightHand_dum2
      direction -1.000000 0.000000 0.000000
      length 3.937000
      axis 0.0 0.0 90.0 xyz
   end
   begin
      id 22
      name RightHandThumb1
      direction 0.000000 0.000000 1.000000
      length 3.937000
      axis 0.0 0.0 90.0 xyz
      dof rx rz ry
   end
   begin
      id 23
      name LeftUpLeg
      direction 0.000000 -1.000000 0.000000
      length 19.114733
      axis 0.0 0.0 0.0 xyz
      dof rx ry rz
   end
   begin
      id 24
      name LeftLeg
      direction 0.000000 -1.000000 0.000000
      length 16.045604
      axis 0.0 0.0 0.0 xyz
      dof rx ry rz
   end
   begin
      id 25
      name LeftFoot
      direction 0.000000 -0.258819 0.965926
      length 5.543155
      axis 15.0 0.0 0.0 xyz
      dof rx ry rz
   end
   begin
      id 26
      name LeftToeBase
      direction 0.000000 0.000000 1.000000
      length 2.952750
      axis 0.0 0.0 0.0 xyz
      dof rx ry rz
   end
   begin
      id 27
      name RightUpLeg
      direction 0.000000 -1.000000 0.000000
      length 19.114733
      axis 0.0 0.0 0.0 xyz
      dof rx ry rz
   end
   begin
      id 28
      name RightLeg
      direction 0.000000 -1.000000 0.000000
      length 16.045604
      axis 0.0 0.0 0.0 xyz
      dof rx ry rz
   end
   begin
      id 29
      name RightFoot
      direction 0.000000 -0.258819 0.965926
      length 5.543155
      axis 15.0 0.0 0.0 xyz
      dof rx ry rz
   end
   begin
      id 30
      name RightToeBase
      direction 0.000000 0.000000 1.000000
      length 2.952750
      axis 0.0 0.0 0.0 xyz
      dof rx ry rz
   end
:hierarchy
   begin
      root Spine_dum LeftUpLeg_dum RightUpLeg_dum
      Spine_dum Spine
      LeftUpLeg_dum LeftUpLeg
      RightUpLeg_dum RightUpLeg
      Spine Spine_dum1 Spine_dum2 Spine_dum3
      Spine_dum1 Head
      Spine_dum2 LeftShoulder
      Spine_dum3 RightShoulder
      LeftShoulder LeftArm
      LeftArm LeftForeArm
      LeftForeArm LeftHand
      LeftHand LeftHand_dum1 LeftHand_dum2
      LeftHand_dum1 LeftHandThumb1
      RightShoulder RightArm
      RightArm RightForeArm
      RightForeArm RightHand
      RightHand RightHand_dum1 RightHand_dum2
      RightHand_dum1 RightHandThumb1
      LeftUpLeg LeftLeg
      LeftLeg LeftFoot
      LeftFoot LeftToeBase
      RightUpLeg RightLeg
      RightLeg RightFoot
      RightFoot RightToeBase
   end

# File created by Blade
# Date/Time:  Tue Jan 27 17:27:32 2015
# Frame Rate: 120.000 fps
#------------------------------------------------------
:FULLY-SPECIFIED
:DEGREES
763
root 3.862311 37.275452 0.011460 3.521490 36.635800 -6.126597
Spine 2.867431 2.165996 3.068338
Head 9.394756 -10.789784 5.479588
LeftShoulder -2.678454 -10.255705 9.128050
LeftArm 3.124448 -14.991865 -55.428774
LeftForeArm 6.392549 -0.000000 104.873281
LeftHand -14.242747 -0.000000 36.579003
LeftHandThumb1 -26.253704 0.000000 33.147579
RightShoulder -8.002133 -20.212391 1.375189
RightArm 15.087726 -23.446077 59.452003
RightForeArm 186.661504 -0.000000 27.743640
RightHand 0.446140 -0.000000 1.493886
RightHandThumb1 -24.326973 -0.000000 -32.862282
LeftUpLeg -10.776704 -9.712377 4.113032
LeftLeg 9.609716 -0.000000 -0.000000
LeftFoot -8.338933 -19.469995 -12.396488
LeftToeBase 15.051336 -0.000000 -0.000000
RightUpLeg -48.308394 8.169158 -1.592621
RightLeg 71.759265 -0.000000 -0.000000
RightFoot -1.957194 5.033981 9.898641
RightToeBase 0.193756 -0.000000 -0.000000
764
root 3.874449 37.277641 0.029590 3.512673 36.816563 -6.187034
Spine 2.661624 2.140828 3.213309
Head 9.424753 -10.855762 5.378901
LeftShoulder -2.710188 -10.205209 9.009436
LeftArm 3.129112 -14.853624 -55.527053
LeftForeArm 6.564689 -0.000000 104.907762
LeftHand -14.263749 -0.000000 36.470757
LeftHandThumb1 -26.253704 0.000000 33.147579
RightShoulder -8.062910 -20.262812 1.366202
RightArm 15.045137 -23.471405 59.453688
RightForeArm 186.647744 -0.000000 27.678588
RightHand 0.385844 -0.000000 1.355965
RightHandThumb1 -24.326973 -0.000000 -32.862282
LeftUpLeg -10.793643 -9.805812 4.167636
LeftLeg 9.602136 -0.000000 -0.000000
LeftFoot -8.319094 -19.583585 -12.142779
LeftToeBase 14.620082 -0.000000 -0.000000
RightUpLeg -48.359033 8.252907 -1.801925
RightLeg 74.763247 -0.000000 -0.000000
RightFoot -1.480118 5.013624 9.846189
RightToeBase 0.113868 -0.000000 -0.000000
765
root 3.884950 37.280058 0.046404 3.485797 36.902680 -6.241661
Spine 2.504551 2.207900 3.339978
Head 9.403472 -10.895845 5.328892
LeftShoulder -2.745904 -10.172382 8.898451
LeftArm 3.146627 -14.710469 -55.625596
LeftForeArm 6.700668 -0.000000 104.910624
LeftHand -14.243618 -0.000000 36.589608
LeftHandThumb1 -26.253704 0.000000 33.147579
RightShoulder -8.104408 -20.288255 1.359238
RightArm 14.973949 -23.472200 59.463309
RightForeArm 186.560885 -0.000000 27.638800
RightHand 0.396909 0.000000 1.158175
RightHandThumb1 -24.326973 -0.000000 -32.862282
LeftUpLeg -10.769830 -9.812308 4.211818
LeftLeg 9.580457 -0.000000 -0.000000
LeftFoot -8.316047 -19.674117 -12.126568
LeftToeBase 14.636318 -0.000000 -0.000000
RightUpLeg -48.366912 8.420352 -1.993147
RightLeg 77.782756 -0.000000 -0.000000
RightFoot -1.052344 4.993246 9.584982
RightToeBase 0.266163 -0.000000 -0.000000
766
root 3.894071 37.282896 0.064820 3.464568 37.025847 -6.309265
Spine 2.322411 2.255990 3.471845
Head 9.374498 -10.922526 5.259019
LeftShoulder -2.754025 -10.142117 8.799565
LeftArm 3.141677 -14.601548 -55.735448
LeftForeArm 6.885667 0.000000 104.913666
LeftHand -14.269229 -0.000000 36.459005
LeftHandThumb1 -26.253704 0.000000 33.147579
RightShoulder -8.131612 -20.302728 1.359397
RightArm 14.863303 -23.456789 59.493522
RightForeArm 186.454329 0.000000 27.588035
RightHand 0.404304 -0.000000 0.922717
RightHandThumb1 -24.326973 -0.000000 -32.862282
LeftUpLeg -10.766788 -9.835469 4.272474
LeftLeg 9.544356 -0.000000 -0.000000
LeftFoot -8.325629 -19.715517 -12.092070
LeftToeBase 14.608297 -0.000000 -0.000000
RightUpLeg -48.352696 8.560449 -2.161940
RightLeg 80.793371 -0.000000 -0.000000
RightFoot -0.559778 4.979646 9.274440
RightToeBase 0.289958 -0.000000 -0.000000
767
root 3.903916 37.286815 0.082254 3.511394 37.191107 -6.395301
Spine 2.027944 2.241336 3.645662
Head 9.403376 -11.005520 5.119247
LeftShoulder -2.795913 -10.081763 8.673709
LeftArm 3.115622 -14.485102 -55.838075
LeftForeArm 7.021609 -0.000000 104.911971
LeftHand -14.230710 -0.000000 36.478212
LeftHandThumb1 -26.253704 0.000000 33.147579
RightShoulder -8.139669 -20.354668 1.322388
RightArm 14.772228 -23.509158 59.498923
RightForeArm 186.478336 -0.000000 27.529997
RightHand 0.386281 -0.000000 0.779146
RightHandThumb1 -24.326973 -0.000000 -32.862282
LeftUpLeg -10.854490 -9.918837 4.367081
LeftLeg 9.537280 -0.000000 -0.000000
LeftFoot -8.309550 -19.790114 -12.154512
LeftToeBase 14.497754 -0.000000 -0.000000
RightUpLeg -48.378970 8.676661 -2.352904
RightLeg 83.819791 -0.000000 -0.000000
RightFoot -0.118641 5.025499 9.154203
RightToeBase 0.735450 -0.000000 -0.000000
768
root 3.910544 37.290988 0.097715 3.552732 37.319611 -6.473232
Spine 1.774829 2.264482 3.791710
Head 9.352449 -11.028931 5.068403
LeftShoulder -2.856476 -10.041244 8.565397
LeftArm 3.113517 -14.373193 -55.958749
LeftForeArm 7.259756 -0.000000 104.893383
LeftHand -14.300725 -0.000000 36.569555
LeftHandThumb1 -26.253704 0.000000 33.147579
RightShoulder -8.169313 -20.412847 1.314129
RightArm 14.728032 -23.509727 59.499564
RightForeArm 186.400153 -0.000000 27.457853
RightHand 0.483379 -0.000000 0.847344
RightHandThumb1 -24.326973 -0.000000 -32.862282
LeftUpLeg -10.930979 -9.962673 4.459144
LeftLeg 9.517756 -0.000000 -0.000000
LeftFoot -8.246929 -19.908007 -12.591173
LeftToeBase 15.073766 -0.000000 -0.000000
RightUpLeg -48.361528 8.811628 -2.513773
RightLeg 86.837978 -0.000000 -0.000000
RightFoot 0.256907 5.017746 8.915301
RightToeBase 0.706054 -0.000000 -0.000000
769
root 3.916026 37.295907 0.112792 3.563960 37.354791 -6.559421
Spine 1.584312 2.391028 3.935637
Head 9.263219 -11.068890 5.029583
LeftShoulder -2.904232 -10.013361 8.446544
LeftArm 3.091599 -14.353522 -56.061010
LeftForeArm 7.193177 0.000000 104.914004
LeftHand -14.164531 -0.000000 36.176152
LeftHandThumb1 -26.253704 0.000000 33.147579
RightShoulder -8.226930 -20.462832 1.321985
RightArm 14.728139 -23.516933 59.467676
RightForeArm 186.268907 -0.000000 27.363405
RightHand 0.426972 -0.000000 0.699556
RightHandThumb1 -24.326973 -0.000000 -32.862282
LeftUpLeg -10.960583 -9.886899 4.543268
LeftLeg 9.482587 -0.000000 -0.000000
LeftFoot -8.194995 -20.063052 -12.721946
LeftToeBase 15.248304 -0.000000 -0.000000
RightUpLeg -48.297347 9.078736 -2.707904
RightLeg 89.859809 -0.000000 -0.000000
RightFoot 0.627042 5.160461 9.093632
RightToeBase 0.547723 -0.000000 -0.000000
770
root 3.923105 37.300465 0.127347 3.607486 37.434072 -6.626963
Spine 1.350072 2.463186 4.068056
Head 9.226339 -11.111514 4.965798
LeftShoulder -2.921406 -9.984964 8.202901
LeftArm 3.174294 -14.421406 -56.095943
LeftForeArm 7.479519 -0.000000 104.919076
LeftHand -14.400942 -0.000000 36.084209
LeftHandThumb1 -26.253704 0.000000 33.147579
RightShoulder -8.263309 -20.507950 1.307554
RightArm 14.704762 -23.550922 59.462979
RightForeArm 186.218727 -0.000000 27.265810
RightHand 0.377627 -0.000000 0.603809
RightHandThumb1 -24.326973 -0.000000 -32.862282
LeftUpLeg -11.017278 -9.890026 4.622343
LeftLeg 9.459837 -0.000000 -0.000000
LeftFoot -8.229077 -20.162193 -12.780847
LeftToeBase 15.815970 -0.000000 -0.000000
RightUpLeg -48.216873 9.295500 -2.899148
RightLeg 92.856600 -0.000000 -0.000000
RightFoot 0.925309 5.250031 9.239288
RightToeBase 0.146088 -0.000000 -0.000000
771
root 3.927033 37.307254 0.140572 3.733346 37.564407 -6.750564
Spine 0.952670 2.498107 4.265069
Head 9.230699 -11.149788 4.865283
LeftShoulder -2.954958 -9.918320 7.932548
LeftArm 3.234550 -14.476772 -56.126479
LeftForeArm 7.488687 -0.000000 104.942462
LeftHand -14.580871 -0.000000 36.169006
LeftHandThumb1 -26.253704 0.000000 33.147579
RightShoulder -8.301066 -20.572343 1.283037
RightArm 14.631125 -23.591238 59.449511
RightForeArm 186.162317 -0.000000 27.200003
RightHand 0.394630 0.000000 0.524296
RightHandThumb1 -24.326973 -0.000000 -32.862282
LeftUpLeg -11.215632 -9.887768 4.771867
LeftLeg 9.431935 -0.000000 -0.000000
LeftFoot -8.101791 -20.359170 -13.003779
LeftToeBase 15.796583 -0.000000 -0.000000
RightUpLeg -48.184156 9.456375 -3.041549
RightLeg 95.829316 -0.000000 -0.000000
RightFoot 1.102524 5.426642 8.941223
RightToeBase 0.299189 -0.000000 -0.000000
772
root 3.929167 37.315211 0.151090 3.858935 37.675116 -6.850529
Spine 0.598794 2.543952 4.425062
Head 9.203134 -11.185252 4.808188
LeftShoulder -3.060317 -9.821194 7.902145
LeftArm 3.327717 -14.545428 -56.455455
LeftForeArm 7.531945 -0.000000 104.848498
LeftHand -14.618114 -0.000000 36.073054
LeftHandThumb1 -26.253704 0.000000 33.147579
RightShoulder -8.304754 -20.601852 1.271991
RightArm 14.524925 -23.609134 59.428788
RightForeArm 186.175812 -0.000000 27.152761
RightHand 0.450083 -0.000000 0.372438
RightHandThumb1 -24.326973 -0.000000 -32.862282
LeftUpLeg -11.383566 -9.967630 4.917433
LeftLeg 9.376810 -0.000000 -0.000000
LeftFoot -8.035782 -20.395712 -13.472305
LeftToeBase 16.079188 -0.000000 -0.000000
RightUpLeg -48.107742 9.614180 -3.203625
RightLeg 98.748301 -0.000000 -0.000000
RightFoot 1.630154 5.618646 7.261610
RightToeBase -0.884743 -0.000000 0.000000
773
root 3.927261 37.322483 0.158680 3.995806 37.712348 -6.952790
Spine 0.265268 2.661656 4.571482
Head 9.118912 -11.222448 4.778031
LeftShoulder -3.145447 -9.773765 7.812152
LeftArm 3.357440 -14.527089 -56.611288
LeftForeArm 7.616338 -0.000000 104.789319
LeftHand -14.566179 -0.000000 36.066118
LeftHandThumb1 -26.253704 0.000000 33.147579
RightShoulder -8.338369 -20.660823 1.262260
RightArm 14.498392 -23.627162 59.406069
RightForeArm 186.133996 -0.000000 27.096083
RightHand 0.451104 -0.000000 0.295689
RightHandThumb1 -24.326973 -0.000000 -32.862282
LeftUpLeg -11.580097 -9.867458 5.052089
LeftLeg 9.356444 -0.000000 -0.000000
LeftFoot -7.904269 -20.610699 -13.645540
LeftToeBase 16.126059 -0.000000 -0.000000
RightUpLeg -48.045808 9.859410 -3.381282
RightLeg 101.626970 -0.000000 -0.000000
RightFoot 1.854904 5.846613 7.075722
RightToeBase -0.932045 -0.000000 0.000000
774
root 3.927241 37.330207 0.169161 4.118105 37.797938 -7.058624
Spine -0.064056 2.735453 4.725609
Head 9.064050 -11.263689 4.723128
LeftShoulder -3.233016 -9.713766 7.711741
LeftArm 3.400262 -14.471002 -56.733572
LeftForeArm 7.737692 -0.000000 104.717547
LeftHand -14.709106 -0.000000 36.347143
LeftHandThumb1 -26.253704 0.000000 33.147579
RightShoulder -8.378160 -20.699106 1.250157
RightArm 14.441638 -23.633367 59.412825
RightForeArm 186.101118 -0.000000 27.036329
RightHand 0.409673 0.000000 0.147963
RightHandThumb1 -24.326973 -0.000000 -32.862282
LeftUpLeg -11.756746 -9.862736 5.189224
LeftLeg 9.327700 -0.000000 -0.000000
LeftFoot -7.967114 -20.678272 -13.578660
LeftToeBase 16.477264 -0.000000 -0.000000
RightUpLeg -47.913508 10.029079 -3.508491
RightLeg 104.493428 -0.000000 -0.000000
RightFoot 1.976028 5.931474 6.375694
RightToeBase -0.948379 -0.000000 0.000000
775
root 3.923679 37.340492 0.175561 4.349689 37.934236 -7.213143
Spine -0.586791 2.745015 4.925104
Head 9.098348 -11.261524 4.651565
LeftShoulder -3.352205 -9.630684 7.673072
LeftArm 3.278327 -14.479411 -56.984757
LeftForeArm 7.583385 -0.000000 104.739296
LeftHand -14.447092 -0.000000 36.009533
LeftHandThumb1 -26.253704 0.000000 33.147579
RightShoulder -8.407384 -20.795111 1.231196
RightArm 14.395285 -23.637806 59.387099
RightForeArm 185.986424 -0.000000 26.983674
RightHand 0.466056 -0.000000 0.128543
RightHandThumb1 -24.326973 -0.000000 -32.862282
LeftUpLeg -12.104959 -9.855530 5.389660
LeftLeg 9.319903 -0.000000 -0.000000
LeftFoot -7.889044 -20.826616 -13.674503
LeftToeBase 16.635041 -0.000000 -0.000000
RightUpLeg -47.880267 10.158657 -3.642853
RightLeg 107.293843 -0.000000 -0.000000
RightFoot 2.091260 6.233027 5.448885
RightToeBase 0.895145 -0.000000 -0.000000
